<svg width="34" height="34" viewBox="0 0 34 34" fill="none" xmlns="http://www.w3.org/2000/svg">
<path d="M25.1169 4.1861H8.3726C7.26238 4.1861 6.19764 4.62713 5.4126 5.41217C4.62756 6.19721 4.18652 7.26195 4.18652 8.37217V25.1165C4.18652 26.2267 4.62756 27.2914 5.4126 28.0765C6.19764 28.8615 7.26238 29.3025 8.3726 29.3025H25.1169C26.2271 29.3025 27.2919 28.8615 28.0769 28.0765C28.8619 27.2914 29.303 26.2267 29.303 25.1165V8.37217C29.303 7.26195 28.8619 6.19721 28.0769 5.41217C27.2919 4.62713 26.2271 4.1861 25.1169 4.1861ZM22.7448 13.4094L16.368 21.7816C16.238 21.9504 16.0711 22.0873 15.88 22.1816C15.6889 22.2759 15.4788 22.3252 15.2657 22.3258C15.0537 22.3269 14.8443 22.2797 14.6533 22.1879C14.4623 22.096 14.2947 21.9618 14.1633 21.7955L10.7587 17.456C10.646 17.3112 10.5629 17.1457 10.5142 16.9688C10.4655 16.7919 10.4521 16.6072 10.4747 16.4251C10.4974 16.2431 10.5557 16.0673 10.6463 15.9078C10.7369 15.7483 10.8581 15.6082 11.0028 15.4955C11.2952 15.2679 11.666 15.1657 12.0337 15.2115C12.2157 15.2342 12.3915 15.2925 12.551 15.3831C12.7105 15.4738 12.8506 15.5949 12.9633 15.7397L15.2378 18.642L20.5122 11.6652C20.624 11.5186 20.7635 11.3955 20.9229 11.3028C21.0823 11.2102 21.2583 11.1498 21.441 11.1252C21.6237 11.1006 21.8095 11.1122 21.9877 11.1593C22.1659 11.2065 22.3331 11.2883 22.4797 11.4001C22.6263 11.5119 22.7494 11.6514 22.8421 11.8108C22.9347 11.9702 22.9951 12.1462 23.0197 12.3289C23.0443 12.5116 23.0327 12.6974 22.9855 12.8756C22.9384 13.0538 22.8566 13.221 22.7448 13.3676V13.4094Z" fill="#6B6F74"/>
</svg>
