<svg width="34" height="34" viewBox="0 0 34 34" fill="none" xmlns="http://www.w3.org/2000/svg">
<path d="M16.7446 30.6979C13.9848 30.6979 11.2871 29.8795 8.99241 28.3463C6.69775 26.813 4.90929 24.6338 3.85318 22.0841C2.79706 19.5344 2.52073 16.7288 3.05914 14.0221C3.59754 11.3154 4.92649 8.82907 6.87793 6.87763C8.82938 4.92618 11.3157 3.59723 14.0224 3.05883C16.7291 2.52043 19.5347 2.79676 22.0844 3.85287C24.6341 4.90898 26.8133 6.69745 28.3466 8.9921C29.8798 11.2868 30.6982 13.9845 30.6982 16.7443C30.6982 20.445 29.2281 23.9942 26.6113 26.611C23.9945 29.2278 20.4453 30.6979 16.7446 30.6979V30.6979ZM16.7446 5.58143C14.5368 5.58143 12.3786 6.23612 10.5428 7.46272C8.70712 8.68931 7.27635 10.4327 6.43146 12.4725C5.58657 14.5122 5.36551 16.7567 5.79623 18.9221C6.22695 21.0874 7.29011 23.0765 8.85127 24.6376C10.4124 26.1988 12.4015 27.262 14.5668 27.6927C16.7322 28.1234 18.9767 27.9023 21.0164 27.0574C23.0562 26.2126 24.7996 24.7818 26.0262 22.9461C27.2528 21.1103 27.9075 18.9521 27.9075 16.7443C27.9075 13.7837 26.7314 10.9444 24.6379 8.85096C22.5445 6.75752 19.7052 5.58143 16.7446 5.58143V5.58143Z" fill="#6B6F74"/>
</svg>
