<svg width="54" height="54" viewBox="0 0 54 54" fill="none" xmlns="http://www.w3.org/2000/svg">
<path d="M44.2848 18.6876L32.0807 5.22712C31.871 4.99472 31.6149 4.80879 31.329 4.68129C31.0431 4.55378 30.7336 4.48753 30.4206 4.48679H14.7168C13.9714 4.4779 13.2316 4.61592 12.5395 4.89298C11.8475 5.17003 11.2168 5.58068 10.6835 6.10149C10.1502 6.6223 9.72471 7.24306 9.43133 7.92833C9.13794 8.61359 8.98242 9.34993 8.97363 10.0953V43.7464C8.98242 44.4918 9.13794 45.2281 9.43133 45.9134C9.72471 46.5986 10.1502 47.2194 10.6835 47.7402C11.2168 48.261 11.8475 48.6717 12.5395 48.9487C13.2316 49.2258 13.9714 49.3638 14.7168 49.3549H39.125C39.8704 49.3638 40.6102 49.2258 41.3022 48.9487C41.9943 48.6717 42.6249 48.261 43.1582 47.7402C43.6916 47.2194 44.1171 46.5986 44.4104 45.9134C44.7038 45.2281 44.8593 44.4918 44.8681 43.7464V20.1906C44.8667 19.6346 44.6588 19.099 44.2848 18.6876V18.6876ZM31.4077 11.217L37.5546 17.9472H33.0678C32.8329 17.933 32.6031 17.8722 32.392 17.7683C32.1808 17.6643 31.9925 17.5194 31.8379 17.3419C31.6834 17.1644 31.5657 16.9578 31.4919 16.7344C31.418 16.5109 31.3894 16.275 31.4077 16.0403V11.217ZM39.125 44.8681H14.7168C14.5606 44.8772 14.4041 44.8554 14.2563 44.8039C14.1086 44.7524 13.9725 44.6722 13.8558 44.568C13.739 44.4638 13.6441 44.3376 13.5762 44.1966C13.5084 44.0556 13.469 43.9026 13.4604 43.7464V10.0953C13.469 9.93908 13.5084 9.78609 13.5762 9.64509C13.6441 9.5041 13.739 9.37788 13.8558 9.27368C13.9725 9.16947 14.1086 9.08932 14.2563 9.03783C14.4041 8.98634 14.5606 8.96451 14.7168 8.97361H26.9209V16.0403C26.8847 17.6929 27.5036 19.2927 28.6426 20.4905C29.7816 21.6884 31.3482 22.387 33.0005 22.434H40.3813V43.7464C40.3727 43.9026 40.3334 44.0556 40.2655 44.1966C40.1977 44.3376 40.1027 44.4638 39.986 44.568C39.8693 44.6722 39.7332 44.7524 39.5854 44.8039C39.4377 44.8554 39.2812 44.8772 39.125 44.8681Z" fill="#6B6F74"/>
<path d="M31.4075 29.1643H29.1641V26.9209C29.1641 26.3259 28.9277 25.7553 28.507 25.3346C28.0863 24.9138 27.5156 24.6775 26.9206 24.6775C26.3257 24.6775 25.755 24.9138 25.3343 25.3346C24.9136 25.7553 24.6772 26.3259 24.6772 26.9209V29.1643H22.4338C21.8388 29.1643 21.2682 29.4007 20.8475 29.8214C20.4268 30.2421 20.1904 30.8127 20.1904 31.4077C20.1904 32.0027 20.4268 32.5733 20.8475 32.994C21.2682 33.4148 21.8388 33.6511 22.4338 33.6511H24.6772V35.8945C24.6772 36.4895 24.9136 37.0601 25.3343 37.4808C25.755 37.9016 26.3257 38.1379 26.9206 38.1379C27.5156 38.1379 28.0863 37.9016 28.507 37.4808C28.9277 37.0601 29.1641 36.4895 29.1641 35.8945V33.6511H31.4075C32.0024 33.6511 32.5731 33.4148 32.9938 32.994C33.4145 32.5733 33.6509 32.0027 33.6509 31.4077C33.6509 30.8127 33.4145 30.2421 32.9938 29.8214C32.5731 29.4007 32.0024 29.1643 31.4075 29.1643Z" fill="#6B6F74"/>
</svg>
