<svg width="34" height="34" viewBox="0 0 34 34" fill="none" xmlns="http://www.w3.org/2000/svg">
<path d="M18.712 16.7443L24.712 10.7582C24.9747 10.4955 25.1224 10.1391 25.1224 9.76752C25.1224 9.39594 24.9747 9.03957 24.712 8.77682C24.4492 8.51407 24.0929 8.36646 23.7213 8.36646C23.3497 8.36646 22.9933 8.51407 22.7306 8.77682L16.7445 14.7769L10.7584 8.77682C10.4957 8.51407 10.1393 8.36646 9.76771 8.36646C9.39612 8.36646 9.03975 8.51407 8.777 8.77682C8.51425 9.03957 8.36664 9.39594 8.36664 9.76752C8.36664 10.1391 8.51425 10.4955 8.777 10.7582L14.777 16.7443L8.777 22.7304C8.64622 22.8601 8.54241 23.0144 8.47157 23.1845C8.40073 23.3545 8.36426 23.5369 8.36426 23.7211C8.36426 23.9053 8.40073 24.0877 8.47157 24.2577C8.54241 24.4278 8.64622 24.5821 8.777 24.7118C8.90672 24.8426 9.06105 24.9464 9.23108 25.0172C9.40112 25.0881 9.5835 25.1246 9.76771 25.1246C9.95191 25.1246 10.1343 25.0881 10.3043 25.0172C10.4744 24.9464 10.6287 24.8426 10.7584 24.7118L16.7445 18.7118L22.7306 24.7118C22.8603 24.8426 23.0146 24.9464 23.1847 25.0172C23.3547 25.0881 23.5371 25.1246 23.7213 25.1246C23.9055 25.1246 24.0879 25.0881 24.2579 25.0172C24.4279 24.9464 24.5823 24.8426 24.712 24.7118C24.8428 24.5821 24.9466 24.4278 25.0174 24.2577C25.0883 24.0877 25.1247 23.9053 25.1247 23.7211C25.1247 23.5369 25.0883 23.3545 25.0174 23.1845C24.9466 23.0144 24.8428 22.8601 24.712 22.7304L18.712 16.7443Z" fill="#6B6F74"/>
</svg>
