<svg width="34" height="34" viewBox="0 0 34 34" fill="none" xmlns="http://www.w3.org/2000/svg">
<path d="M16.7438 19.535C18.2851 19.535 19.5346 18.2856 19.5346 16.7443C19.5346 15.2031 18.2851 13.9536 16.7438 13.9536C15.2026 13.9536 13.9531 15.2031 13.9531 16.7443C13.9531 18.2856 15.2026 19.535 16.7438 19.535Z" fill="#6B6F74"/>
<path d="M26.5114 19.535C28.0527 19.535 29.3021 18.2856 29.3021 16.7443C29.3021 15.2031 28.0527 13.9536 26.5114 13.9536C24.9701 13.9536 23.7207 15.2031 23.7207 16.7443C23.7207 18.2856 24.9701 19.535 26.5114 19.535Z" fill="#6B6F74"/>
<path d="M6.97626 19.535C8.51753 19.535 9.76698 18.2856 9.76698 16.7443C9.76698 15.2031 8.51753 13.9536 6.97626 13.9536C5.43499 13.9536 4.18555 15.2031 4.18555 16.7443C4.18555 18.2856 5.43499 19.535 6.97626 19.535Z" fill="#6B6F74"/>
</svg>
