<svg width="65" height="65" viewBox="0 0 65 65" fill="none" xmlns="http://www.w3.org/2000/svg">
<path d="M58.8924 30.9676C57.169 27.9786 47.6902 12.9795 31.587 13.4642C16.6956 13.8412 8.07854 26.9284 5.73577 30.9676C5.49943 31.377 5.375 31.8414 5.375 32.314C5.375 32.7867 5.49943 33.2511 5.73577 33.6605C7.43226 36.5957 16.5071 51.1639 32.3679 51.1639H33.0411C47.9325 50.7869 56.5765 37.6997 58.8924 33.6605C59.1287 33.2511 59.2531 32.7867 59.2531 32.314C59.2531 31.8414 59.1287 31.377 58.8924 30.9676V30.9676ZM32.9065 45.7782C21.3004 46.0475 13.7335 36.1109 11.3638 32.314C14.0566 27.9786 21.0849 19.1191 31.8563 18.8499C43.4086 18.5536 51.0024 28.5171 53.399 32.314C50.6254 36.6495 43.6778 45.5089 32.9065 45.7782V45.7782Z" fill="#6B6F74"/>
<path d="M32.3136 22.8891C30.4495 22.8891 28.6273 23.4419 27.0774 24.4775C25.5275 25.5131 24.3195 26.9851 23.6061 28.7073C22.8928 30.4294 22.7061 32.3245 23.0698 34.1527C23.4334 35.981 24.3311 37.6604 25.6492 38.9785C26.9673 40.2966 28.6466 41.1942 30.4749 41.5579C32.3031 41.9215 34.1982 41.7349 35.9204 41.0215C37.6425 40.3082 39.1145 39.1002 40.1501 37.5502C41.1858 36.0003 41.7385 34.1781 41.7385 32.314C41.7385 29.8144 40.7456 27.4171 38.978 25.6496C37.2105 23.8821 34.8133 22.8891 32.3136 22.8891V22.8891ZM32.3136 36.3533C31.5147 36.3533 30.7338 36.1164 30.0695 35.6725C29.4053 35.2287 28.8875 34.5979 28.5818 33.8598C28.2761 33.1217 28.1961 32.3095 28.352 31.526C28.5078 30.7425 28.8925 30.0227 29.4574 29.4578C30.0223 28.8929 30.742 28.5082 31.5256 28.3524C32.3091 28.1965 33.1213 28.2765 33.8594 28.5822C34.5974 28.888 35.2283 29.4057 35.6721 30.0699C36.116 30.7342 36.3529 31.5151 36.3529 32.314C36.3529 33.3853 35.9273 34.4127 35.1698 35.1702C34.4123 35.9277 33.3849 36.3533 32.3136 36.3533Z" fill="#6B6F74"/>
</svg>
