<svg width="34" height="34" viewBox="0 0 34 34" fill="none" xmlns="http://www.w3.org/2000/svg">
<path d="M16.7436 2.79071C13.9839 2.79071 11.2861 3.60907 8.99143 5.14231C6.69678 6.67555 4.90831 8.8548 3.8522 11.4045C2.79608 13.9542 2.51976 16.7598 3.05816 19.4665C3.59656 22.1732 4.92551 24.6595 6.87695 26.611C8.8284 28.5624 11.3147 29.8914 14.0214 30.4298C16.7281 30.9682 19.5337 30.6918 22.0834 29.6357C24.6331 28.5796 26.8124 26.7911 28.3456 24.4965C29.8788 22.2018 30.6972 19.5041 30.6972 16.7443C30.6972 14.9119 30.3363 13.0974 29.6351 11.4045C28.9338 9.71156 27.906 8.17333 26.6103 6.87762C25.3146 5.58191 23.7764 4.5541 22.0834 3.85286C20.3905 3.15163 18.576 2.79071 16.7436 2.79071V2.79071ZM16.7436 27.9072C14.5358 27.9072 12.3776 27.2525 10.5419 26.0259C8.70615 24.7993 7.27538 23.0559 6.43048 21.0161C5.58559 18.9764 5.36453 16.7319 5.79525 14.5665C6.22598 12.4011 7.28913 10.4121 8.85029 8.85095C10.4114 7.2898 12.4005 6.22664 14.5659 5.79592C16.7312 5.3652 18.9757 5.58626 21.0155 6.43115C23.0552 7.27604 24.7986 8.70681 26.0252 10.5425C27.2518 12.3783 27.9065 14.5365 27.9065 16.7443C27.9065 19.7049 26.7304 22.5442 24.637 24.6376C22.5435 26.7311 19.7042 27.9072 16.7436 27.9072V27.9072Z" fill="#6B6F74"/>
<path d="M16.7434 9.76752C15.3635 9.76752 14.0146 10.1767 12.8673 10.9433C11.72 11.7099 10.8257 12.7996 10.2977 14.0744C9.76962 15.3492 9.63146 16.752 9.90066 18.1054C10.1699 19.4588 10.8343 20.7019 11.8101 21.6776C12.7858 22.6534 14.0289 23.3178 15.3823 23.587C16.7357 23.8562 18.1385 23.7181 19.4133 23.19C20.6881 22.662 21.7778 21.7677 22.5444 20.6204C23.311 19.4731 23.7202 18.1242 23.7202 16.7443C23.7202 14.8939 22.9851 13.1194 21.6767 11.811C20.3683 10.5026 18.5938 9.76752 16.7434 9.76752V9.76752ZM16.7434 20.9304C15.9155 20.9304 15.1061 20.6849 14.4177 20.2249C13.7293 19.7649 13.1928 19.1112 12.876 18.3462C12.5591 17.5813 12.4762 16.7397 12.6378 15.9276C12.7993 15.1156 13.198 14.3697 13.7834 13.7843C14.3688 13.1989 15.1147 12.8002 15.9267 12.6387C16.7388 12.4771 17.5804 12.56 18.3453 12.8769C19.1102 13.1937 19.764 13.7303 20.224 14.4186C20.684 15.107 20.9295 15.9164 20.9295 16.7443C20.9295 17.8545 20.4884 18.9193 19.7034 19.7043C18.9184 20.4894 17.8536 20.9304 16.7434 20.9304Z" fill="#6B6F74"/>
</svg>
