<svg width="34" height="34" viewBox="0 0 34 34" fill="none" xmlns="http://www.w3.org/2000/svg">
<path d="M19.9667 17.3164L18.1388 19.0606V11.1629C18.1388 10.7928 17.9917 10.4379 17.7301 10.1762C17.4684 9.91453 17.1135 9.76752 16.7434 9.76752C16.3733 9.76752 16.0184 9.91453 15.7567 10.1762C15.495 10.4379 15.348 10.7928 15.348 11.1629V18.9629L13.548 17.149C13.2853 16.8862 12.9289 16.7386 12.5573 16.7386C12.1857 16.7386 11.8294 16.8862 11.5666 17.149C11.3039 17.4117 11.1563 17.7681 11.1562 18.1397C11.1562 18.5113 11.3039 18.8676 11.5666 19.1304L15.7527 23.3164C15.8854 23.4435 16.0419 23.5431 16.2132 23.6095C16.3802 23.6833 16.5608 23.7214 16.7434 23.7214C16.926 23.7214 17.1066 23.6833 17.2736 23.6095C17.3557 23.5764 17.4312 23.5292 17.4969 23.4699C17.5747 23.4368 17.6457 23.3895 17.7062 23.3304L21.8923 19.3397C22.1606 19.0843 22.3164 18.7329 22.3256 18.3626C22.3348 17.9923 22.1965 17.6335 21.9411 17.3652C21.6858 17.0969 21.3343 16.9411 20.964 16.9319C20.5937 16.9227 20.235 17.0611 19.9667 17.3164V17.3164Z" fill="#6B6F74"/>
<path d="M16.7436 2.79071C13.9839 2.79071 11.2861 3.60907 8.99143 5.14231C6.69678 6.67555 4.90831 8.8548 3.8522 11.4045C2.79608 13.9542 2.51976 16.7598 3.05816 19.4665C3.59656 22.1732 4.92551 24.6595 6.87695 26.611C8.8284 28.5624 11.3147 29.8914 14.0214 30.4298C16.7281 30.9682 19.5337 30.6918 22.0834 29.6357C24.6331 28.5796 26.8124 26.7911 28.3456 24.4965C29.8788 22.2018 30.6972 19.5041 30.6972 16.7443C30.6972 14.9119 30.3363 13.0974 29.6351 11.4045C28.9338 9.71156 27.906 8.17333 26.6103 6.87762C25.3146 5.58191 23.7764 4.5541 22.0834 3.85286C20.3905 3.15163 18.576 2.79071 16.7436 2.79071V2.79071ZM16.7436 27.9072C14.5358 27.9072 12.3776 27.2525 10.5419 26.0259C8.70615 24.7993 7.27538 23.0559 6.43048 21.0161C5.58559 18.9764 5.36453 16.7319 5.79525 14.5665C6.22598 12.4011 7.28913 10.4121 8.85029 8.85095C10.4114 7.2898 12.4005 6.22664 14.5659 5.79592C16.7312 5.3652 18.9757 5.58626 21.0155 6.43115C23.0552 7.27604 24.7986 8.70681 26.0252 10.5425C27.2518 12.3783 27.9065 14.5365 27.9065 16.7443C27.9065 19.7049 26.7304 22.5442 24.637 24.6376C22.5435 26.7311 19.7042 27.9072 16.7436 27.9072V27.9072Z" fill="#6B6F74"/>
</svg>
