<svg width="35" height="35" viewBox="0 0 35 35" fill="none" xmlns="http://www.w3.org/2000/svg">
<path d="M25.9362 30.0377H9.19193C8.08172 30.0377 7.01697 29.5967 6.23193 28.8116C5.44689 28.0266 5.00586 26.9619 5.00586 25.8516V9.10734C5.00586 7.99712 5.44689 6.93238 6.23193 6.14734C7.01697 5.3623 8.08172 4.92126 9.19193 4.92126H25.9362C27.0464 4.92126 28.1112 5.3623 28.8962 6.14734C29.6813 6.93238 30.1223 7.99712 30.1223 9.10734V25.8516C30.1223 26.9619 29.6813 28.0266 28.8962 28.8116C28.1112 29.5967 27.0464 30.0377 25.9362 30.0377ZM9.19193 7.71198C8.82186 7.71198 8.46695 7.85899 8.20527 8.12067C7.94359 8.38235 7.79658 8.73727 7.79658 9.10734V25.8516C7.79658 26.2217 7.94359 26.5766 8.20527 26.8383C8.46695 27.1 8.82186 27.247 9.19193 27.247H25.9362C26.3063 27.247 26.6612 27.1 26.9229 26.8383C27.1846 26.5766 27.3316 26.2217 27.3316 25.8516V9.10734C27.3316 8.73727 27.1846 8.38235 26.9229 8.12067C26.6612 7.85899 26.3063 7.71198 25.9362 7.71198H9.19193Z" fill="#6B6F74"/>
</svg>
