<svg width="55" height="54" viewBox="0 0 55 54" fill="none" xmlns="http://www.w3.org/2000/svg">
<path d="M47.861 13.5129H36.644V9.76642C36.5914 8.33024 35.9714 6.97351 34.9201 5.99367C33.8688 5.01383 32.4718 4.49081 31.0355 4.53929H24.3053C22.8689 4.49081 21.472 5.01383 20.4207 5.99367C19.3693 6.97351 18.7494 8.33024 18.6968 9.76642V13.5129H7.47973C6.88475 13.5129 6.31413 13.7493 5.89341 14.17C5.47269 14.5907 5.23633 15.1613 5.23633 15.7563C5.23633 16.3513 5.47269 16.9219 5.89341 17.3426C6.31413 17.7634 6.88475 17.9997 7.47973 17.9997H9.72314V42.6772C9.72314 44.4622 10.4322 46.174 11.6944 47.4362C12.9565 48.6983 14.6684 49.4074 16.4534 49.4074H38.8874C40.6724 49.4074 42.3842 48.6983 43.6464 47.4362C44.9086 46.174 45.6176 44.4622 45.6176 42.6772V17.9997H47.861C48.456 17.9997 49.0267 17.7634 49.4474 17.3426C49.8681 16.9219 50.1044 16.3513 50.1044 15.7563C50.1044 15.1613 49.8681 14.5907 49.4474 14.17C49.0267 13.7493 48.456 13.5129 47.861 13.5129ZM23.1836 9.76642C23.1836 9.40748 23.6547 9.0261 24.3053 9.0261H31.0355C31.6861 9.0261 32.1572 9.40748 32.1572 9.76642V13.5129H23.1836V9.76642ZM41.1308 42.6772C41.1308 43.2722 40.8945 43.8428 40.4737 44.2635C40.053 44.6842 39.4824 44.9206 38.8874 44.9206H16.4534C15.8584 44.9206 15.2878 44.6842 14.867 44.2635C14.4463 43.8428 14.21 43.2722 14.21 42.6772V17.9997H41.1308V42.6772Z" fill="#6B6F74"/>
<path d="M20.9397 38.1904C21.5347 38.1904 22.1053 37.9541 22.526 37.5333C22.9467 37.1126 23.1831 36.542 23.1831 35.947V26.9734C23.1831 26.3784 22.9467 25.8078 22.526 25.3871C22.1053 24.9663 21.5347 24.73 20.9397 24.73C20.3447 24.73 19.7741 24.9663 19.3534 25.3871C18.9326 25.8078 18.6963 26.3784 18.6963 26.9734V35.947C18.6963 36.542 18.9326 37.1126 19.3534 37.5333C19.7741 37.9541 20.3447 38.1904 20.9397 38.1904Z" fill="#6B6F74"/>
<path d="M34.4006 38.1904C34.9956 38.1904 35.5662 37.9541 35.987 37.5333C36.4077 37.1126 36.644 36.542 36.644 35.947V26.9734C36.644 26.3784 36.4077 25.8078 35.987 25.3871C35.5662 24.9663 34.9956 24.73 34.4006 24.73C33.8056 24.73 33.235 24.9663 32.8143 25.3871C32.3936 25.8078 32.1572 26.3784 32.1572 26.9734V35.947C32.1572 36.542 32.3936 37.1126 32.8143 37.5333C33.235 37.9541 33.8056 38.1904 34.4006 38.1904Z" fill="#6B6F74"/>
</svg>
